<svg height="512pt" viewBox="-111 0 512 512" width="512pt" xmlns="http://www.w3.org/2000/svg"><path d="m278.953125 504.5h-271.453125v-119.953125c0-35.542969 28.8125-64.359375 64.359375-64.359375h142.734375c35.542969 0 64.359375 28.816406 64.359375 64.359375zm0 0" fill="#ebeef2"/><path d="m278.949219 384.550781v119.945313h-21.929688v-119.945313c0-35.542969-28.824219-64.363281-64.363281-64.363281h21.941406c35.539063 0 64.351563 28.820312 64.351563 64.363281zm0 0" fill="#d3d8df"/><path d="m59.925781 443.820312h166.601563v60.679688h-166.601563zm0 0" fill="#7fb7ea"/><path d="m144.769531 356.425781c-12.117187 0-21.941406-9.820312-21.941406-21.9375v-61.539062h43.875v61.539062c.003906 12.117188-9.820313 21.9375-21.933594 21.9375zm0 0" fill="#e39f6e"/><path d="m28.707031 187.132812h232.121094l6.121094-29.863281c15.855469-77.339843-43.230469-149.769531-122.179688-149.769531-78.953125 0-138.039062 72.429688-122.183593 149.769531zm0 0" fill="#627687"/><path d="m273.773438 198.820312c0 16.3125-13.222657 29.535157-29.535157 29.535157s-29.539062-13.222657-29.539062-29.535157 13.226562-29.539062 29.539062-29.539062 29.535157 13.226562 29.535157 29.539062zm0 0" fill="#e39f6e"/><path d="m74.835938 198.820312c0 16.3125-13.226563 29.535157-29.539063 29.535157s-29.535156-13.222657-29.535156-29.535157 13.222656-29.539062 29.535156-29.539062 29.539063 13.226562 29.539063 29.539062zm0 0" fill="#e39f6e"/><path d="m144.769531 297.746094c-40.152343 0-74.015625-29.898438-78.992187-69.738282l-14.695313-117.632812h187.371094l-14.691406 117.632812c-4.976563 39.839844-38.84375 69.738282-78.992188 69.738282zm0 0" fill="#f8c298"/><path d="m37.757812 141.753906s40.445313 11.425782 77.597657-15.691406c0 0 82.957031 58.816406 163.675781 1.84375 4.097656-2.890625 3.992188-8.996094-.234375-11.691406l-50.144531-31.957032h-190.894532zm0 0" fill="#627687"/><path d="m214.59375 312.6875h-40.386719v-12.578125c6.148438-2.210937 12.0625-5.113281 17.632813-8.695313 3.480468-2.238281 4.488281-6.878906 2.25-10.363281-2.242188-3.484375-6.882813-4.492187-10.367188-2.25-11.644531 7.488281-25.117187 11.445313-38.957031 11.445313-36.289063 0-67.050781-27.15625-71.546875-63.167969l-9.441406-75.5625c14.632812-.652344 33.371094-4.425781 51.714844-16.429687 7.941406 4.875 25.875 14.699218 49.640624 20.546874 12.484376 3.070313 24.820313 4.59375 36.910157 4.59375 7.734375 0 15.359375-.644531 22.859375-1.886718l-8.585938 68.738281c-1.394531 11.191406-5.265625 21.609375-11.492187 30.972656-2.296875 3.445313-1.359375 8.101563 2.085937 10.398438 1.277344.851562 2.722656 1.257812 4.148438 1.257812 2.425781 0 4.804687-1.175781 6.25-3.347656 6.726562-10.105469 11.167968-21.234375 13.242187-33.132813 4.328125 1.722657 8.976563 2.628907 13.683594 2.628907 20.421875 0 37.039063-16.613281 37.039063-37.035157 0-9.765624-3.804688-18.65625-10.003907-25.28125l3.027344-14.761718c1.382813-6.753906 2.246094-13.617188 2.578125-20.441406 2.179688-1.375 4.34375-2.796876 6.480469-4.304688 3.980469-2.808594 6.289062-7.390625 6.175781-12.253906-.117188-4.839844-2.621094-9.285156-6.707031-11.886719l-8.753907-5.582031c-6.1875-28.609375-21.976562-54.710938-44.589843-73.632813-23.636719-19.78125-53.722657-30.675781-84.710938-30.675781-26.121093 0-51.335937 7.566406-72.921875 21.878906-3.449218 2.289063-4.394531 6.945313-2.105468 10.398438 2.292968 3.453125 6.945312 4.394531 10.398437 2.105468 19.117187-12.679687 41.464844-19.382812 64.628906-19.382812 27.875 0 53.839844 9.398438 75.089844 27.179688 15.921875 13.324218 28.011719 30.664062 35.074219 49.929687l-22.25-14.179687c-3.492188-2.226563-8.128906-1.199219-10.355469 2.292968-2.226563 3.492188-1.199219 8.128906 2.292969 10.355469l49.542968 31.578125c-31.339843 21.910156-66.644531 28.316406-104.941406 19.03125-29.21875-7.082031-49.335937-21.109375-49.527344-21.246094-2.628906-1.863281-6.15625-1.839844-8.761718.0625-26.714844 19.5-55.410156 17.324219-66.503906 15.484375-4.085938-.679687-7.949219 2.082031-8.625 6.167969-.679688 4.085938 2.082031 7.949219 6.167968 8.628906 1.828125.300782 4.066406.609375 6.640625.855469l1.367188 10.945313c-1.542969-.195313-3.105469-.304688-4.683594-.304688-4.800781 0-9.386719.929688-13.597656 2.597656l-1.765625-8.617187c-7.464844-36.402344 2.378906-73.273438 27-101.160157 2.742187-3.105468 2.449218-7.84375-.65625-10.585937-3.105469-2.742187-7.84375-2.445313-10.585938.660156-27.769531 31.453125-38.871094 73.039063-30.453125 114.097657l3.027344 14.761718c-6.199219 6.625-10.007813 15.515625-10.007813 25.28125 0 20.421875 16.617188 37.039063 37.039063 37.039063 4.761719 0 9.378906-.894531 13.6875-2.613281 5.503906 31.304687 27.5625 56.460937 56.34375 66.84375v12.597656h-43.46875c-14.550781 0-28.566406 4.328125-40.535156 12.515625-3.417969 2.339843-4.292969 7.003906-1.953125 10.425781 1.453125 2.121094 3.804687 3.265625 6.195312 3.265625 1.460938 0 2.933594-.425781 4.230469-1.3125 9.460937-6.472656 20.546875-9.894531 32.0625-9.894531h43.46875v6.800781c0 16.234375 13.207031 29.4375 29.4375 29.4375 16.234375 0 29.4375-13.203125 29.4375-29.4375v-6.800781h40.386719c31.351562 0 56.859375 25.507812 56.859375 56.863281v119.953125c0 4.140625 3.359375 7.5 7.5 7.5 4.144531 0 7.5-3.359375 7.5-7.5v-119.953125c.003906-39.621094-32.234375-71.859375-71.855469-71.859375zm29.644531-91.832031c-4.179687 0-8.140625-1.152344-11.609375-3.320313l4.960938-39.726562c2.136718-.675782 4.363281-1.027344 6.648437-1.027344 12.152344 0 22.035157 9.886719 22.035157 22.039062 0 12.152344-9.882813 22.035157-22.035157 22.035157zm15.363281-65.09375-1.765624 8.621093c-4.214844-1.671874-8.800782-2.597656-13.597657-2.597656-1.578125 0-3.140625.109375-4.6875.304688l.910157-7.273438c7.007812-2.023437 13.875-4.617187 20.574218-7.769531-.378906 2.917969-.839844 5.828125-1.433594 8.714844zm-236.339843 43.058593c0-12.152343 9.886719-22.039062 22.035156-22.039062 2.285156 0 4.511719.351562 6.648437 1.027344l4.964844 39.734375c-3.476562 2.167969-7.449218 3.3125-11.613281 3.3125-12.152344 0-22.035156-9.882813-22.035156-22.035157zm121.507812 150.105469c-7.960937 0-14.441406-6.476562-14.441406-14.4375v-30.464843c4.707031.789062 9.527344 1.222656 14.441406 1.222656 4.863281 0 9.691407-.417969 14.433594-1.214844v30.457031c0 7.960938-6.472656 14.4375-14.433594 14.4375zm0 0"/><path d="m16.171875 351.402344c-3.78125-1.695313-8.21875-.003906-9.914063 3.773437-4.152343 9.261719-6.257812 19.144531-6.257812 29.371094v119.953125c0 4.140625 3.359375 7.5 7.5 7.5s7.5-3.359375 7.5-7.5v-119.953125c0-8.097656 1.664062-15.914063 4.945312-23.234375 1.695313-3.777344.003907-8.214844-3.773437-9.910156zm0 0"/><path d="m99.65625 184.949219c-4.136719.113281-7.402344 3.5625-7.289062 7.703125l.125 4.683594c.113281 4.070312 3.449218 7.292968 7.496093 7.292968.066407 0 .136719 0 .207031-.003906 4.140626-.113281 7.40625-3.5625 7.292969-7.699219l-.128906-4.683593c-.113281-4.140626-3.554687-7.414063-7.703125-7.292969zm0 0"/><path d="m186.257812 184.949219c-4.140624.113281-7.40625 3.5625-7.292968 7.703125l.128906 4.683594c.109375 4.070312 3.445312 7.292968 7.492188 7.292968.066406 0 .136718 0 .207031-.003906 4.140625-.113281 7.40625-3.5625 7.292969-7.699219l-.128907-4.683593c-.113281-4.140626-3.554687-7.414063-7.699219-7.292969zm0 0"/><path d="m163.472656 220.765625c-4.695312 6.484375-12.265625 10.355469-20.246094 10.355469-7.984374 0-15.550781-3.871094-20.246093-10.355469-2.429688-3.355469-7.121094-4.105469-10.476563-1.675781-3.355468 2.429687-4.105468 7.121094-1.675781 10.472656 7.507813 10.371094 19.621094 16.558594 32.398437 16.558594 12.777344 0 24.886719-6.1875 32.394532-16.558594 2.429687-3.351562 1.679687-8.042969-1.675782-10.472656-3.355468-2.429688-8.042968-1.679688-10.472656 1.675781zm0 0"/><path d="m226.527344 396.53125c-4.144532 0-7.5 3.359375-7.5 7.5v32.289062h-151.601563v-32.289062c0-4.140625-3.359375-7.5-7.5-7.5s-7.5 3.359375-7.5 7.5v100.46875c0 4.140625 3.359375 7.5 7.5 7.5s7.5-3.359375 7.5-7.5v-53.179688h151.601563v53.179688c0 4.140625 3.355468 7.5 7.5 7.5 4.140625 0 7.5-3.359375 7.5-7.5v-100.46875c0-4.140625-3.359375-7.5-7.5-7.5zm0 0"/></svg>