<?xml version="1.0" encoding="iso-8859-1"?>
<!-- Generator: Adobe Illustrator 19.0.0, SVG Export Plug-In . SVG Version: 6.00 Build 0)  -->
<svg version="1.1" id="Layer_1" xmlns="http://www.w3.org/2000/svg" xmlns:xlink="http://www.w3.org/1999/xlink" x="0px" y="0px"
	 viewBox="0 0 512 512" style="enable-background:new 0 0 512 512;" xml:space="preserve">
<g>
	<path style="fill:#EBEBEC;" d="M504.491,166.682V12.96c0-2.764-2.241-5.005-5.005-5.005H12.513c-2.764,0-5.005,2.241-5.005,5.005
		v153.722c0,2.764,2.241,5.005,5.005,5.005h486.973C502.251,171.687,504.491,169.447,504.491,166.682z"/>
</g>
<path style="fill:#D7D8D9;" d="M499.487,171.687h-47.475V7.954h47.475c2.764,0,5.005,2.241,5.005,5.005v153.722
	C504.491,169.447,502.251,171.687,499.487,171.687z"/>
<path d="M504.492,40.785c-4.147,0-7.508-3.361-7.508-7.508v-1.001c0-4.146,3.361-7.508,7.508-7.508c4.147,0,7.508,3.361,7.508,7.508
	v1.001C512,37.423,508.639,40.785,504.492,40.785z"/>
<path style="fill:#FDDD85;" d="M161.418,301.347c0-36.244-30.216-65.43-66.831-63.745c-32.99,1.519-59.639,28.515-60.76,61.522
	c-1.071,31.528,20.738,58.153,50.103,64.564v28.124c0,1.684,0.847,3.254,2.253,4.18l5.84,3.844c2.767,1.822,3.033,5.783,0.533,7.957
	l-6.905,6.007c-1.093,0.951-1.72,2.328-1.72,3.776v15.979c0,1.59,0.755,3.085,2.035,4.029l5.724,4.218
	c2.552,1.881,2.734,5.631,0.377,7.751l-6.479,5.827c-1.055,0.949-1.658,2.302-1.658,3.721v32.223c0,1.42,0.603,2.773,1.659,3.722
	l8.56,7.695c1.919,1.725,4.834,1.708,6.734-0.037l8.777-8.069c1.031-0.948,1.618-2.284,1.618-3.685V363.688
	C139.95,357.428,161.418,331.896,161.418,301.347z"/>
<circle style="fill:#FDD042;" cx="97.599" cy="301.677" r="50.947"/>
<circle style="fill:#FFFFFF;" cx="97.599" cy="276.365" r="13.966"/>
<path style="fill:#FDDD85;" d="M319.589,301.347c0-36.244-30.216-65.43-66.831-63.745c-32.99,1.519-59.639,28.515-60.76,61.522
	c-1.071,31.528,20.738,58.153,50.103,64.564v28.124c0,1.684,0.847,3.254,2.253,4.18l5.84,3.844c2.767,1.822,3.033,5.783,0.533,7.957
	l-6.905,6.007c-1.093,0.951-1.72,2.328-1.72,3.776v15.979c0,1.59,0.755,3.085,2.035,4.029l5.724,4.218
	c2.552,1.881,2.734,5.631,0.377,7.751l-6.479,5.827c-1.055,0.949-1.658,2.302-1.658,3.721v32.223c0,1.42,0.603,2.773,1.659,3.722
	l8.56,7.695c1.919,1.725,4.834,1.708,6.734-0.037l8.777-8.069c1.031-0.948,1.618-2.284,1.618-3.685V363.688
	C298.12,357.428,319.589,331.896,319.589,301.347z"/>
<circle style="fill:#FDD042;" cx="255.774" cy="301.677" r="50.947"/>
<circle style="fill:#FFFFFF;" cx="255.774" cy="276.365" r="13.966"/>
<path style="fill:#FDDD85;" d="M477.758,301.347c0-36.244-30.216-65.43-66.831-63.745c-32.99,1.519-59.639,28.515-60.76,61.522
	c-1.071,31.528,20.738,58.153,50.103,64.564v28.124c0,1.684,0.847,3.254,2.253,4.18l5.84,3.844c2.767,1.822,3.033,5.783,0.533,7.957
	l-6.905,6.007c-1.093,0.951-1.72,2.328-1.72,3.776v15.979c0,1.59,0.755,3.085,2.035,4.029l5.724,4.218
	c2.552,1.881,2.734,5.631,0.377,7.751l-6.479,5.827c-1.055,0.949-1.658,2.302-1.658,3.721v32.223c0,1.42,0.603,2.773,1.659,3.722
	l8.56,7.695c1.919,1.725,4.835,1.708,6.734-0.037l8.777-8.069c1.031-0.948,1.618-2.284,1.618-3.685V363.688
	C456.29,357.428,477.758,331.896,477.758,301.347z"/>
<circle style="fill:#FDD042;" cx="413.94" cy="301.677" r="50.947"/>
<circle style="fill:#FFFFFF;" cx="413.94" cy="276.365" r="13.966"/>
<path d="M504.492,39.784c4.147,0,7.508-3.361,7.508-7.508V12.96c0-6.9-5.614-12.513-12.513-12.513H12.513
	C5.614,0.447,0,6.06,0,12.96v153.722c0,6.9,5.614,12.513,12.513,12.513h42.086c8.415,11.134,21.046,18.903,35.496,20.927v30.317
	c-34.898,3.679-62.567,32.96-63.772,68.429c-1.101,32.413,19.659,61.179,50.099,70.599v22.343c0,4.223,2.106,8.131,5.633,10.452
	l3.084,2.031l-4.415,3.841c-2.733,2.377-4.301,5.819-4.301,9.441v15.98c0,3.956,1.901,7.722,5.089,10.073l3.251,2.396l-4.196,3.774
	c-2.633,2.37-4.144,5.761-4.144,9.303v32.223c0,3.544,1.511,6.936,4.148,9.306l8.559,7.695c2.393,2.152,5.38,3.225,8.367,3.225
	c3.031,0,6.064-1.108,8.469-3.319l8.776-8.068c2.571-2.363,4.045-5.721,4.045-9.214V369.461c13.3-4.146,25.258-12.2,34.134-23.091
	c10.322-12.666,16.007-28.655,16.007-45.022c0-19.674-7.838-37.994-22.069-51.585c-11.576-11.055-26.119-17.701-41.745-19.316
	v-30.324c14.451-2.024,27.083-9.793,35.496-20.927h72.16c8.415,11.134,21.046,18.903,35.496,20.927v30.32
	c-34.898,3.679-62.567,32.957-63.772,68.427c-1.101,32.413,19.659,61.179,50.099,70.599v22.343c0,4.223,2.106,8.131,5.633,10.452
	l3.084,2.031l-4.415,3.841c-2.733,2.377-4.301,5.819-4.301,9.441v15.98c0,3.956,1.901,7.722,5.089,10.073l3.251,2.396l-4.196,3.774
	c-2.633,2.37-4.144,5.761-4.144,9.303v32.223c0,3.544,1.511,6.936,4.148,9.306l8.559,7.695c2.393,2.152,5.38,3.225,8.367,3.225
	c3.031,0,6.064-1.108,8.469-3.319l8.776-8.068c2.571-2.363,4.045-5.721,4.045-9.214v-121.49c13.3-4.145,25.258-12.2,34.134-23.091
	c10.322-12.666,16.007-28.655,16.007-45.022c0-2.753-0.159-5.528-0.473-8.246c-0.475-4.119-4.209-7.072-8.319-6.598
	c-4.119,0.476-7.074,4.2-6.598,8.32c0.247,2.149,0.373,4.344,0.373,6.525c0,26.276-18.603,49.41-44.234,55.005
	c-3.448,0.753-5.907,3.805-5.907,7.335v126.164l-6.293,5.786l-6.039-5.428v-29.993l5.65-5.081c2.808-2.526,4.314-6.14,4.13-9.913
	c-0.184-3.773-2.033-7.222-5.075-9.464l-4.705-3.467v-13.574l6.046-5.26c2.978-2.592,4.536-6.339,4.272-10.278
	c-0.265-3.939-2.307-7.444-5.605-9.614l-4.713-3.103v-26.775c0-3.529-2.458-6.583-5.907-7.335
	c-26.537-5.794-45.125-29.755-44.2-56.973c0.933-27.463,21.965-50.216,48.765-53.813v10.704
	c-8.144,3.053-13.967,10.896-13.967,20.094c0,11.841,9.633,21.475,21.475,21.475s21.475-9.633,21.475-21.475
	c0-9.198-5.823-17.04-13.967-20.094v-10.705c8.338,1.107,16.298,4.034,23.406,8.714c3.463,2.28,8.119,1.32,10.4-2.143
	c2.28-3.463,1.321-8.12-2.143-10.399c-9.585-6.31-20.369-10.142-31.663-11.317v-30.295c14.451-2.024,27.083-9.793,35.496-20.927
	h72.16c8.415,11.134,21.046,18.903,35.496,20.927v30.328c-34.896,3.68-62.567,32.95-63.772,68.418
	c-1.101,32.413,19.659,61.179,50.099,70.599v22.343c0,4.223,2.106,8.131,5.633,10.452l3.084,2.031l-4.415,3.841
	c-2.733,2.377-4.301,5.819-4.301,9.441v15.98c0,3.956,1.901,7.722,5.089,10.073l3.251,2.396l-4.196,3.774
	c-2.633,2.37-4.144,5.761-4.144,9.303v32.223c0,3.544,1.511,6.936,4.148,9.306l8.559,7.695c2.393,2.152,5.38,3.225,8.367,3.225
	c3.031,0,6.064-1.108,8.469-3.319l8.776-8.068c2.571-2.363,4.045-5.721,4.045-9.214V369.461c13.3-4.146,25.258-12.2,34.134-23.091
	c10.322-12.666,16.007-28.655,16.007-45.022c0-19.674-7.838-37.994-22.069-51.585c-11.576-11.055-26.118-17.701-41.745-19.316
	v-30.324c14.451-2.024,27.083-9.793,35.496-20.927h42.538c6.9,0,12.513-5.614,12.513-12.513V87.335c0-4.146-3.361-7.508-7.508-7.508
	c-4.147,0-7.508,3.361-7.508,7.508v76.844h-32.058c1.87-5.465,2.901-11.315,2.901-17.406c0-27.17-20.217-49.695-46.395-53.351
	c0.008-0.138,0.021-0.275,0.021-0.415V70.803c0-4.146-3.361-7.508-7.508-7.508s-7.508,3.361-7.508,7.508v22.204
	c0,0.14,0.013,0.277,0.021,0.415c-26.178,3.656-46.396,26.182-46.396,53.351c0,6.091,1.03,11.941,2.901,17.406h-56.205
	c1.87-5.465,2.901-11.315,2.901-17.406c0-27.17-20.217-49.695-46.396-53.351c0.008-0.138,0.021-0.275,0.021-0.415V70.803
	c0-4.146-3.361-7.508-7.508-7.508c-4.147,0-7.508,3.361-7.508,7.508v22.204c0,0.14,0.013,0.277,0.021,0.415
	c-26.178,3.656-46.395,26.182-46.395,53.351c0,6.091,1.03,11.941,2.901,17.406H148.59c1.87-5.465,2.901-11.315,2.901-17.406
	c0-27.17-20.217-49.695-46.395-53.351c0.008-0.138,0.021-0.275,0.021-0.415V70.803c0-4.146-3.361-7.508-7.508-7.508
	c-4.147,0-7.508,3.361-7.508,7.508v22.204c0,0.14,0.013,0.277,0.021,0.415c-26.179,3.656-46.395,26.182-46.395,53.351
	c0,6.091,1.03,11.941,2.901,17.406H15.016V15.463h481.968v16.813C496.984,36.422,500.345,39.784,504.492,39.784z M420.403,276.363
	c0,3.561-2.897,6.459-6.459,6.459s-6.459-2.897-6.459-6.459c0-1.225,0.349-2.366,0.943-3.343c1.372,1.488,3.331,2.426,5.516,2.426
	s4.143-0.938,5.516-2.426C420.054,273.997,420.403,275.139,420.403,276.363z M452.825,260.621
	c11.237,10.731,17.425,25.194,17.425,40.726c0,26.276-18.603,49.41-44.234,55.005c-3.448,0.753-5.907,3.805-5.907,7.335v126.164
	l-6.294,5.786l-6.038-5.428v-29.993l5.65-5.081c2.808-2.526,4.314-6.14,4.13-9.913c-0.184-3.773-2.033-7.222-5.074-9.464
	l-4.705-3.467v-13.574l6.046-5.26c2.979-2.591,4.536-6.339,4.272-10.278c-0.265-3.939-2.307-7.444-5.605-9.614l-4.713-3.103v-26.775
	c0-3.529-2.458-6.583-5.907-7.335c-26.537-5.794-45.125-29.755-44.2-56.974c0.933-27.463,21.965-50.222,48.765-53.819v10.71
	c-8.144,3.053-13.967,10.896-13.967,20.094c0,11.841,9.633,21.475,21.475,21.475s21.475-9.633,21.475-21.475
	c0-9.198-5.823-17.04-13.967-20.094v-10.724C433.195,247.091,444.081,252.269,452.825,260.621z M413.944,107.907
	c21.431,0,38.867,17.436,38.867,38.867s-17.436,38.867-38.867,38.867c-21.431,0-38.867-17.436-38.867-38.867
	S392.513,107.907,413.944,107.907z M255.774,282.822c-3.561,0-6.459-2.897-6.459-6.459c0-1.225,0.349-2.366,0.943-3.343
	c1.372,1.488,3.331,2.426,5.516,2.426c2.184,0,4.143-0.938,5.516-2.426c0.594,0.977,0.943,2.118,0.943,3.343
	C262.233,279.924,259.336,282.822,255.774,282.822z M255.774,107.907c21.431,0,38.867,17.436,38.867,38.867
	c0,7.429-2.098,14.375-5.729,20.284c-0.294,0.375-0.553,0.777-0.773,1.204c-6.972,10.466-18.875,17.379-32.366,17.379
	c-13.491,0-25.394-6.913-32.366-17.379c-0.22-0.427-0.479-0.83-0.773-1.205c-3.63-5.909-5.729-12.855-5.729-20.284
	C216.908,125.342,234.343,107.907,255.774,107.907z M104.064,276.363c0,3.561-2.897,6.459-6.459,6.459
	c-3.561,0-6.459-2.897-6.459-6.459c0-1.225,0.349-2.366,0.943-3.343c1.372,1.488,3.331,2.426,5.516,2.426
	c2.184,0,4.143-0.938,5.516-2.426C103.715,273.997,104.064,275.139,104.064,276.363z M136.486,260.621
	c11.237,10.731,17.425,25.194,17.425,40.726c0,26.276-18.603,49.41-44.234,55.005c-3.448,0.753-5.907,3.805-5.907,7.335v126.164
	l-6.294,5.786l-6.038-5.428v-29.993l5.65-5.081c2.808-2.526,4.314-6.14,4.13-9.913s-2.033-7.222-5.074-9.464l-4.705-3.467v-13.574
	l6.046-5.26c2.978-2.591,4.536-6.339,4.272-10.278c-0.265-3.939-2.307-7.444-5.605-9.614l-4.713-3.103v-26.775
	c0-3.529-2.458-6.583-5.907-7.335c-26.537-5.794-45.125-29.755-44.2-56.974c0.933-27.462,21.966-50.213,48.765-53.811v10.702
	c-8.144,3.053-13.967,10.896-13.967,20.094c0,11.841,9.633,21.475,21.475,21.475s21.475-9.633,21.475-21.475
	c0-9.198-5.823-17.04-13.967-20.094V245.54C116.856,247.088,127.741,252.269,136.486,260.621z M97.604,107.907
	c21.431,0,38.867,17.436,38.867,38.867s-17.436,38.867-38.867,38.867s-38.867-17.436-38.867-38.867S76.173,107.907,97.604,107.907z"
	/>
<g>
</g>
<g>
</g>
<g>
</g>
<g>
</g>
<g>
</g>
<g>
</g>
<g>
</g>
<g>
</g>
<g>
</g>
<g>
</g>
<g>
</g>
<g>
</g>
<g>
</g>
<g>
</g>
<g>
</g>
</svg>
